<?xml version="1.0" encoding="UTF-8" standalone="no"?>
<!-- Created with Inkscape (http://www.inkscape.org/) -->

<svg
   width="201.37598mm"
   height="238.59506mm"
   viewBox="0 0 201.37598 238.59506"
   version="1.1"
   id="svg1"
   xml:space="preserve"
   xmlns="http://www.w3.org/2000/svg"
   xmlns:svg="http://www.w3.org/2000/svg"><defs
     id="defs1" /><g
     id="layer1"
     transform="translate(-5.8559414,-35.546127)"><g
       id="g23"
       transform="translate(23.941666,-11.970833)"><path
         style="display:inline;mix-blend-mode:normal;fill:#006dff;fill-opacity:1;stroke-width:0.264583"
         d="M 7.8635436,76.820772 C 46.173114,93.556007 84.481921,110.29091 107.46812,141.54408 c 22.98621,31.25317 30.64797,77.02211 38.30988,122.79197 0,0.60489 0,1.20978 -0.40326,1.20977 -0.40327,0 -1.20977,-0.60489 -2.01629,-1.20978"
         id="path1"
         transform="translate(3.0244399,20.566192)" /><path
         style="display:inline;mix-blend-mode:lighten;fill:#006dff;fill-opacity:1;stroke-width:0.264583"
         d="m 204.71891,59.641624 c -8.57846,23.627535 -17.15686,47.254896 -26.7787,69.373646 -9.62183,22.11875 -20.28696,42.7286 -48.50502,62.00651 -28.21805,19.27792 -73.9871,37.22261 -119.7569872,55.16763"
         id="path5"
         transform="rotate(1.9820352,-371.96132,-549.95608)" /><ellipse
         style="fill:#006dff;fill-opacity:1;stroke-width:0.264618"
         id="path6"
         cx="97.110176"
         cy="-104.83334"
         rx="26.31958"
         ry="26.61507"
         transform="matrix(0.99973587,0.02298243,0,-1,0,0)" /><g
         style="fill:#1a5fb4"
         id="g6"
         transform="matrix(3.0844697,-1.2714638,1.1762313,2.8534434,40.47125,62.753948)"><g
           id="SVGRepo_bgCarrier"
           stroke-width="0" /><g
           id="SVGRepo_tracerCarrier"
           stroke-linecap="round"
           stroke-linejoin="round" /><g
           id="SVGRepo_iconCarrier"
           transform="matrix(1.1044238,-0.09700895,0.12618759,1.1781216,-0.91248393,-1.0739536)"> <g
   id="g3"> <g
   id="g2"> <path
   id="path1-3"
   style="fill:#ff6600"
   d="M 13.959275,7.4183361 8.6027287,10.673323 2.9082343,7.418457 2.453246,10.259366 c 0.002,-0.004 0.00593,-0.007 0.010926,-0.01299 -0.065,0.109 -0.012769,1.500065 -0.039686,1.612739 -1.015061,4.249033 1.3908068,-0.855863 6.0790093,-0.654415 5.8507627,0.251402 4.8238987,3.036668 5.3455737,1.284851 0,0 0.158364,-1.134726 0.249023,-2.127937 z" /> <path
   style="fill:#ff6600"
   d="M 17.211,4.873 8.635,2.17 0.975,4.613 C 0.867,4.63 0.765,4.658 0.684,4.706 v 0 0 C 0.586,4.764 0.519,4.848 0.514,4.972 0.473,5.468 0,11.17 0,11.17 L 0.514,12.878 0.991,11.17 0.789,5.294 8.612,10.107 Z M 8.015,5.118 H 0.783 L 1.539,4.705 H 7.924 C 8.007,4.56 8.203,4.458 8.431,4.458 c 0.304,0 0.55,0.181 0.55,0.403 0,0.223 -0.246,0.404 -0.55,0.404 C 8.261,5.267 8.115,5.207 8.015,5.118 Z"
   id="path2" /> </g> </g> </g></g></g></g></svg>
